<?xml version="1.0" standalone="no"?>
<svg viewBox="0 0 200 200" xmlns="http://www.w3.org/2000/svg">
  <path fill="#BD1E51" d="M37.4,-60.4C45.9,-52.8,48.5,-38.1,56.9,-24.6C65.3,-11.1,79.5,1.2,73.8,7.5C68,13.8,42.3,14.1,29.8,22.7C17.4,31.3,18.3,48.2,12.8,55.1C7.3,61.9,-4.5,58.8,-15.1,54.4C-25.7,50,-35.1,44.3,-35.1,35.4C-35.1,26.5,-25.6,14.4,-23.3,5.6C-20.9,-3.1,-25.8,-8.5,-26.3,-13.9C-26.8,-19.3,-23.1,-24.7,-18,-33.9C-12.9,-43.1,-6.4,-56.1,4,-62.4C14.5,-68.6,28.9,-68.1,37.4,-60.4Z" transform="translate(100 100)" />
</svg>
